<svg width="40" height="44" viewBox="0 0 40 44" fill="none" xmlns="http://www.w3.org/2000/svg">
<path d="M37.6003 10.2667H39.0669V9.65947L38.6387 9.22827L37.6003 10.2667ZM28.8003 1.46667L29.8387 0.428267L29.4075 0H28.8003V1.46667ZM17.0669 19.0667V17.6H15.6003V19.0667H17.0669ZM17.0669 24.9333H15.6003V26.4H17.0669V24.9333ZM22.9336 24.9333H24.4003V23.4667H22.9336V24.9333ZM22.9336 30.8V32.2667H24.4003V30.8H22.9336ZM28.8003 27.8667H27.3336V28.4739L27.7619 28.9051L28.8003 27.8667ZM31.7336 30.8L30.6952 31.8384L31.7336 32.8739L32.772 31.8384L31.7336 30.8ZM34.6669 27.8667L35.7053 28.9051L36.1336 28.4739V27.8667H34.6669ZM5.33359 19.0667V17.6H3.86693V19.0667H5.33359ZM5.33359 30.8H3.86693V32.2667H5.33359V30.8ZM3.86693 14.6667V4.4H0.933594V14.6667H3.86693ZM36.1336 10.2667V14.6667H39.0669V10.2667H36.1336ZM5.33359 2.93333H28.8003V0H5.33359V2.93333ZM27.7619 2.50507L36.5619 11.3051L38.6387 9.22827L29.8387 0.428267L27.7619 2.50507ZM3.86693 4.4C3.86693 4.01102 4.02145 3.63796 4.2965 3.36291C4.57156 3.08786 4.94461 2.93333 5.33359 2.93333V0C4.16664 0 3.04748 0.46357 2.22232 1.28873C1.39716 2.11389 0.933594 3.23305 0.933594 4.4H3.86693ZM0.933594 35.2V39.6H3.86693V35.2H0.933594ZM5.33359 44H34.6669V41.0667H5.33359V44ZM39.0669 39.6V35.2H36.1336V39.6H39.0669ZM34.6669 44C35.8339 44 36.953 43.5364 37.7782 42.7113C38.6034 41.8861 39.0669 40.767 39.0669 39.6H36.1336C36.1336 39.989 35.9791 40.362 35.704 40.6371C35.429 40.9121 35.0559 41.0667 34.6669 41.0667V44ZM0.933594 39.6C0.933594 40.767 1.39716 41.8861 2.22232 42.7113C3.04748 43.5364 4.16664 44 5.33359 44V41.0667C4.94461 41.0667 4.57156 40.9121 4.2965 40.6371C4.02145 40.362 3.86693 39.989 3.86693 39.6H0.933594ZM24.4003 17.6H17.0669V20.5333H24.4003V17.6ZM15.6003 19.0667V24.9333H18.5336V19.0667H15.6003ZM17.0669 26.4H22.9336V23.4667H17.0669V26.4ZM21.4669 24.9333V30.8H24.4003V24.9333H21.4669ZM22.9336 29.3333H15.6003V32.2667H22.9336V29.3333ZM27.3336 17.6V27.8667H30.2669V17.6H27.3336ZM27.7619 28.9051L30.6952 31.8384L32.772 29.7616L29.8387 26.8283L27.7619 28.9051ZM32.772 31.8384L35.7053 28.9051L33.6285 26.8283L30.6952 29.7616L32.772 31.8384ZM36.1336 27.8667V17.6H33.2003V27.8667H36.1336ZM12.6669 17.6H5.33359V20.5333H12.6669V17.6ZM3.86693 19.0667V30.8H6.80026V19.0667H3.86693ZM5.33359 32.2667H12.6669V29.3333H5.33359V32.2667Z" fill="#B5B8CA"/>
</svg>
