<svg width="29" height="29" viewBox="0 0 29 29" fill="none" xmlns="http://www.w3.org/2000/svg">
<path fill-rule="evenodd" clip-rule="evenodd" d="M2.36862 11.3574C4.03256 3.00159 11.2568 0.345069 14.661 0.0612815C7.35629 -0.636419 2.84007 4.79568 1.49505 7.59892C-5.05672 21.8852 11.3584 34.8524 22.9681 26.225C27.8434 22.8694 28.6173 16.7493 28.4301 14.306C26.8493 24.4808 18.0512 26.8272 13.1218 26.225C3.27131 24.0489 1.84864 15.4065 2.36862 11.3574ZM13.88 13.5631C14.0693 14.0464 14.5358 14.3765 15.0294 14.3765C16.1127 14.3765 16.2843 13.327 16.1181 12.6804C16.0324 12.3476 15.4073 11.9517 14.9885 11.965C14.1841 11.991 13.5983 12.8443 13.88 13.5631ZM9.61457 13.2144C9.72201 14.5848 10.7764 17.4972 14.134 18.1831C15.7616 18.4004 19.2405 17.8448 20.1351 13.885C20.387 11.9025 19.4604 8.35741 15.371 7.70138C16.3541 7.63082 18.6554 7.98186 19.9956 9.95034C23.549 14.3967 18.3539 21.1918 12.6206 18.5273C11.4957 17.9806 9.31964 16.1526 9.61457 13.2144ZM6.06859 12.9848C5.39874 8.76931 8.71035 4.83952 12.4726 3.50072C17.9206 1.50511 23.3772 4.67636 25.3694 9.80118C27.8112 15.816 22.4871 23.5335 15.8969 22.7806C21.2373 21.6504 25.2206 17.019 23.8352 11.3819C21.5623 1.40795 7.29157 3.23356 6.06859 12.9848ZM11.7808 14.1294C12.2344 15.3636 13.5419 16.4413 14.9313 16.2076C11.7088 15.8355 11.0617 11.1441 14.3468 10.3649C16.2032 9.89122 17.7444 11.1879 18.1341 12.9421C18.362 10.7706 15.798 9.04235 13.8203 9.86483C12.1349 10.5366 11.1051 12.3425 11.7808 14.1294Z" fill="url(#paint0_linear_6177_23631)"/>
<defs>
<linearGradient id="paint0_linear_6177_23631" x1="24.9178" y1="34.11" x2="17.1692" y2="6.38029" gradientUnits="userSpaceOnUse">
<stop stop-color="#6332FB"/>
<stop offset="1" stop-color="#31D1E0"/>
</linearGradient>
</defs>
</svg>
