<svg width="114" height="29" viewBox="0 0 114 29" fill="none" xmlns="http://www.w3.org/2000/svg">
<path fill-rule="evenodd" clip-rule="evenodd" d="M2.36862 11.3574C4.03256 3.00159 11.2568 0.345069 14.661 0.0612815C7.35629 -0.636419 2.84007 4.79568 1.49505 7.59892C-5.05672 21.8852 11.3584 34.8524 22.9681 26.225C27.8434 22.8694 28.6173 16.7493 28.4301 14.306C26.8493 24.4808 18.0512 26.8272 13.1218 26.225C3.27131 24.0489 1.84864 15.4065 2.36862 11.3574ZM13.88 13.5631C14.0693 14.0464 14.5358 14.3765 15.0294 14.3765C16.1127 14.3765 16.2843 13.327 16.1181 12.6804C16.0324 12.3476 15.4073 11.9517 14.9885 11.965C14.1841 11.991 13.5983 12.8443 13.88 13.5631ZM9.61457 13.2144C9.72201 14.5848 10.7764 17.4972 14.134 18.1831C15.7616 18.4004 19.2405 17.8448 20.1351 13.885C20.387 11.9025 19.4604 8.35741 15.371 7.70138C16.3541 7.63082 18.6554 7.98186 19.9956 9.95034C23.549 14.3967 18.3539 21.1918 12.6206 18.5273C11.4957 17.9806 9.31964 16.1526 9.61457 13.2144ZM6.06859 12.9848C5.39874 8.76931 8.71035 4.83952 12.4726 3.50072C17.9206 1.50511 23.3772 4.67636 25.3694 9.80118C27.8112 15.816 22.4871 23.5335 15.8969 22.7806C21.2373 21.6504 25.2206 17.019 23.8352 11.3819C21.5623 1.40795 7.29157 3.23356 6.06859 12.9848ZM11.7808 14.1294C12.2344 15.3636 13.5419 16.4413 14.9313 16.2076C11.7088 15.8355 11.0617 11.1441 14.3468 10.3649C16.2032 9.89122 17.7444 11.1879 18.1341 12.9421C18.362 10.7706 15.798 9.04235 13.8203 9.86483C12.1349 10.5366 11.1051 12.3425 11.7808 14.1294Z" fill="url(#paint0_linear_6177_23630)"/>
<path d="M35.2109 22.475V6.69026H41.8631C43.2611 6.69026 44.4638 6.91578 45.471 7.36678C46.4933 7.81773 47.275 8.47168 47.8162 9.32858C48.3722 10.1704 48.6506 11.1776 48.6506 12.3502C48.6506 13.5228 48.3722 14.5376 47.8162 15.3944C47.275 16.2363 46.4933 16.8827 45.471 17.3337C44.4638 17.7847 43.2611 18.0102 41.8631 18.0102H37.0375L38.5032 16.5219V22.475H35.2109ZM38.5032 16.8827L37.0375 15.2817H41.7052C42.9079 15.2817 43.8099 15.0261 44.4112 14.515C45.0275 14.0039 45.3357 13.2823 45.3357 12.3502C45.3357 11.4182 45.0275 10.6966 44.4112 10.1855C43.8099 9.67436 42.9079 9.41877 41.7052 9.41877H37.0375L38.5032 7.8403V16.8827ZM56.4057 22.6329C55.0374 22.6329 53.8426 22.3698 52.8204 21.8436C51.8131 21.3024 51.0238 20.5658 50.4525 19.6337C49.8962 18.6867 49.6183 17.6193 49.6183 16.4317C49.6183 15.2291 49.8889 14.1617 50.4298 13.2297C50.9861 12.2976 51.7454 11.5685 52.7073 11.0423C53.6696 10.5011 54.7518 10.2306 55.9548 10.2306C57.1423 10.2306 58.2018 10.4861 59.1341 10.9972C60.081 11.5084 60.8176 12.23 61.3439 13.162C61.8853 14.0941 62.1559 15.2065 62.1559 16.4994C62.1559 16.6196 62.1482 16.7624 62.1332 16.9278C62.1332 17.0932 62.1255 17.2435 62.1105 17.3788H52.1664V15.417H60.4421L59.2018 16.0258C59.2168 15.3643 59.0815 14.7856 58.7958 14.2895C58.5251 13.7934 58.1496 13.4025 57.6682 13.1169C57.1873 12.8313 56.6237 12.6885 55.977 12.6885C55.3308 12.6885 54.7595 12.8313 54.2631 13.1169C53.7822 13.4025 53.4066 13.8009 53.136 14.312C52.8653 14.8081 52.73 15.3944 52.73 16.0709V16.567C52.73 17.2585 52.8803 17.8674 53.1809 18.3935C53.4965 18.9197 53.9402 19.3256 54.5115 19.6112C55.0828 19.8968 55.744 20.0396 56.4956 20.0396C57.1573 20.0396 57.7436 19.942 58.2545 19.7465C58.7659 19.536 59.2318 19.2203 59.6528 18.7994L61.3439 20.6936C60.7876 21.325 60.0887 21.806 59.2468 22.1368C58.4198 22.4675 57.4729 22.6329 56.4057 22.6329ZM71.0208 22.6329C69.9835 22.6329 69.0667 22.4149 68.2696 21.9789C67.4881 21.5279 66.8791 20.8439 66.4431 19.9269C66.0221 18.9949 65.8119 17.8298 65.8119 16.4317C65.8119 15.0186 66.0371 13.861 66.4886 12.959C66.9395 12.0421 67.5558 11.358 68.3373 10.907C69.1193 10.4561 70.0135 10.2306 71.0208 10.2306C72.1784 10.2306 73.2156 10.4861 74.1325 10.9972C75.0498 11.5084 75.7714 12.23 76.2973 13.162C76.8237 14.079 77.0866 15.1689 77.0866 16.4317C77.0866 17.6795 76.8237 18.7693 76.2973 19.7014C75.7714 20.6335 75.0498 21.355 74.1325 21.8661C73.2156 22.3773 72.1784 22.6329 71.0208 22.6329ZM64.098 22.475V5.74316H67.2773V13.0267L67.0521 16.4092L67.1198 19.8142V22.475H64.098ZM70.5471 19.9945C71.1788 19.9945 71.7424 19.8517 72.2383 19.5661C72.7496 19.2805 73.1479 18.8671 73.4336 18.3259C73.7342 17.7847 73.8845 17.1533 73.8845 16.4317C73.8845 15.6951 73.7342 15.0637 73.4336 14.5376C73.1479 13.9963 72.7496 13.5829 72.2383 13.2973C71.7424 13.0117 71.1788 12.8689 70.5471 12.8689C69.9159 12.8689 69.3523 13.0117 68.8559 13.2973C68.36 13.5829 67.9618 13.9963 67.6611 14.5376C67.36 15.0637 67.2097 15.6951 67.2097 16.4317C67.2097 17.1533 67.36 17.7847 67.6611 18.3259C67.9618 18.8671 68.36 19.2805 68.8559 19.5661C69.3523 19.8517 69.9159 19.9945 70.5471 19.9945ZM85.963 22.6329C84.9258 22.6329 84.0089 22.4149 83.2119 21.9789C82.4303 21.5279 81.8213 20.8439 81.3854 19.9269C80.9644 18.9949 80.7541 17.8298 80.7541 16.4317C80.7541 15.0186 80.9794 13.861 81.4303 12.959C81.8818 12.0421 82.498 11.358 83.2795 10.907C84.0611 10.4561 84.9557 10.2306 85.963 10.2306C87.1206 10.2306 88.1578 10.4861 89.0747 10.9972C89.9921 11.5084 90.7132 12.23 91.2396 13.162C91.7659 14.079 92.0289 15.1689 92.0289 16.4317C92.0289 17.6795 91.7659 18.7693 91.2396 19.7014C90.7132 20.6335 89.9921 21.355 89.0747 21.8661C88.1578 22.3773 87.1206 22.6329 85.963 22.6329ZM79.0402 22.475V5.74316H82.2196V13.0267L81.9944 16.4092L82.062 19.8142V22.475H79.0402ZM85.4893 19.9945C86.1211 19.9945 86.6846 19.8517 87.1805 19.5661C87.6919 19.2805 88.0902 18.8671 88.3758 18.3259C88.6765 17.7847 88.8268 17.1533 88.8268 16.4317C88.8268 15.6951 88.6765 15.0637 88.3758 14.5376C88.0902 13.9963 87.6919 13.5829 87.1805 13.2973C86.6846 13.0117 86.1211 12.8689 85.4893 12.8689C84.8581 12.8689 84.2945 13.0117 83.7982 13.2973C83.3023 13.5829 82.904 13.9963 82.6029 14.5376C82.3022 15.0637 82.1519 15.6951 82.1519 16.4317C82.1519 17.1533 82.3022 17.7847 82.6029 18.3259C82.904 18.8671 83.3023 19.2805 83.7982 19.5661C84.2945 19.8517 84.8581 19.9945 85.4893 19.9945ZM93.9825 22.475V5.74316H97.1618V22.475H93.9825ZM105.642 22.6329C104.379 22.6329 103.252 22.3698 102.26 21.8436C101.283 21.3024 100.508 20.5658 99.9376 19.6337C99.3813 18.7017 99.1029 17.6344 99.1029 16.4317C99.1029 15.214 99.3886 14.1391 99.9599 13.2071C100.531 12.2751 101.305 11.546 102.283 11.0198C103.26 10.4937 104.379 10.2306 105.642 10.2306C106.905 10.2306 108.025 10.4937 109.003 11.0198C109.994 11.546 110.769 12.2751 111.325 13.2071C111.896 14.1391 112.182 15.214 112.182 16.4317C112.182 17.6344 111.904 18.7017 111.348 19.6337C110.791 20.5658 110.017 21.3024 109.025 21.8436C108.033 22.3698 106.905 22.6329 105.642 22.6329ZM105.642 19.9945C106.289 19.9945 106.86 19.8517 107.356 19.5661C107.852 19.2805 108.243 18.8671 108.529 18.3259C108.83 17.7847 108.98 17.1533 108.98 16.4317C108.98 15.6951 108.83 15.0637 108.529 14.5376C108.243 13.9963 107.852 13.5829 107.356 13.2973C106.86 13.0117 106.289 12.8689 105.642 12.8689C105.011 12.8689 104.447 13.0117 103.951 13.2973C103.455 13.5829 103.057 13.9963 102.756 14.5376C102.455 15.0637 102.305 15.6951 102.305 16.4317C102.305 17.1533 102.455 17.7847 102.756 18.3259C103.057 18.8671 103.455 19.2805 103.951 19.5661C104.447 19.8517 105.011 19.9945 105.642 19.9945Z" fill="white"/>
<defs>
<linearGradient id="paint0_linear_6177_23630" x1="24.9178" y1="34.11" x2="17.1692" y2="6.38029" gradientUnits="userSpaceOnUse">
<stop stop-color="#6332FB"/>
<stop offset="1" stop-color="#31D1E0"/>
</linearGradient>
</defs>
</svg>
