<svg width="12" height="8" viewBox="0 0 12 8" fill="none" xmlns="http://www.w3.org/2000/svg">
<g id="Group">
<path id="Vector" d="M3.38555 2.94491C3.38555 3.0929 3.40151 3.2129 3.42945 3.30089C3.46138 3.38889 3.50129 3.48489 3.55716 3.58888C3.57712 3.62088 3.5851 3.65288 3.5851 3.68088C3.5851 3.72088 3.56115 3.76087 3.50927 3.80087L3.25783 3.96887C3.22191 3.99287 3.18599 4.00487 3.15406 4.00487C3.11415 4.00487 3.07424 3.98487 3.03433 3.94887C2.97846 3.88887 2.93056 3.82487 2.89065 3.76087C2.85074 3.69288 2.81083 3.61688 2.76693 3.52488C2.45563 3.89287 2.0645 4.07686 1.59355 4.07686C1.2583 4.07686 0.990902 3.98087 0.795339 3.78887C0.599777 3.59688 0.5 3.34089 0.5 3.0209C0.5 2.68092 0.619732 2.40493 0.863188 2.19694C1.10664 1.98894 1.42992 1.88495 1.841 1.88495C1.9767 1.88495 2.11638 1.89695 2.26405 1.91695C2.41172 1.93695 2.56339 1.96894 2.72303 2.00494V1.71295C2.72303 1.40897 2.65917 1.19697 2.53545 1.07298C2.40773 0.948984 2.19222 0.888986 1.8849 0.888986C1.74521 0.888986 1.60154 0.904986 1.45387 0.940984C1.3062 0.976983 1.16252 1.02098 1.02283 1.07698C0.958973 1.10498 0.911081 1.12098 0.883143 1.12898C0.855206 1.13698 0.83525 1.14098 0.819286 1.14098C0.763411 1.14098 0.735473 1.10098 0.735473 1.01698V0.820989C0.735473 0.756991 0.743456 0.708993 0.763411 0.680994C0.783366 0.652995 0.819286 0.624996 0.875161 0.596998C1.01485 0.525 1.18247 0.465003 1.37804 0.417005C1.5736 0.365007 1.78113 0.341007 2.00064 0.341007C2.47558 0.341007 2.8228 0.449003 3.04631 0.664995C3.26581 0.880987 3.37756 1.20897 3.37756 1.64896V2.94491H3.38555ZM1.76517 3.55288C1.89688 3.55288 2.03257 3.52888 2.17625 3.48089C2.31993 3.43289 2.44764 3.34489 2.5554 3.2249C2.61926 3.1489 2.66715 3.0649 2.6911 2.96891C2.71505 2.87291 2.73101 2.75691 2.73101 2.62092V2.45293C2.61527 2.42493 2.49155 2.40093 2.36383 2.38493C2.23612 2.36893 2.11239 2.36093 1.98867 2.36093C1.72127 2.36093 1.52571 2.41293 1.394 2.52092C1.2623 2.62892 1.19844 2.78091 1.19844 2.98091C1.19844 3.1689 1.24633 3.30889 1.34611 3.40489C1.44189 3.50488 1.58158 3.55288 1.76517 3.55288ZM4.97 3.98487C4.89816 3.98487 4.85027 3.97287 4.81834 3.94487C4.78641 3.92087 4.75848 3.86487 4.73453 3.78887L3.79663 0.696994C3.77268 0.616997 3.76071 0.564999 3.76071 0.537C3.76071 0.473002 3.79264 0.437004 3.85649 0.437004H4.24762C4.32345 0.437004 4.37533 0.449003 4.40327 0.477002C4.4352 0.501001 4.45915 0.556999 4.48309 0.632996L5.15359 3.28089L5.7762 0.632996C5.79615 0.552999 5.8201 0.501001 5.85203 0.477002C5.88396 0.453003 5.93983 0.437004 6.01167 0.437004H6.33096C6.40679 0.437004 6.45867 0.449003 6.4906 0.477002C6.52253 0.501001 6.55047 0.556999 6.56643 0.632996L7.19702 3.31289L7.88748 0.632996C7.91142 0.552999 7.93936 0.501001 7.9673 0.477002C7.99923 0.453003 8.05111 0.437004 8.12295 0.437004H8.49412C8.55798 0.437004 8.5939 0.469003 8.5939 0.537C8.5939 0.556999 8.58991 0.576998 8.58591 0.600997C8.58192 0.624996 8.57394 0.656995 8.55798 0.700994L7.59613 3.79287C7.57218 3.87287 7.54425 3.92487 7.51232 3.94887C7.48039 3.97287 7.4285 3.98887 7.36066 3.98887H7.01742C6.94159 3.98887 6.88971 3.97687 6.85778 3.94887C6.82585 3.92087 6.79791 3.86887 6.78195 3.78887L6.16333 1.20897L5.54871 3.78487C5.52875 3.86487 5.50481 3.91687 5.47288 3.94487C5.44095 3.97287 5.38507 3.98487 5.31323 3.98487H4.97ZM10.0985 4.09286C9.891 4.09286 9.68346 4.06886 9.48391 4.02086C9.28435 3.97287 9.1287 3.92087 9.02493 3.86087C8.96108 3.82487 8.91717 3.78487 8.90121 3.74888C8.88525 3.71288 8.87726 3.67288 8.87726 3.63688V3.43289C8.87726 3.34889 8.90919 3.30889 8.96906 3.30889C8.993 3.30889 9.01695 3.31289 9.0409 3.32089C9.06484 3.32889 9.10076 3.34489 9.14067 3.36089C9.27637 3.42089 9.42404 3.46889 9.57969 3.50089C9.73934 3.53288 9.89499 3.54888 10.0546 3.54888C10.3061 3.54888 10.5016 3.50488 10.6373 3.41689C10.773 3.32889 10.8449 3.2009 10.8449 3.0369C10.8449 2.92491 10.8089 2.83291 10.7371 2.75691C10.6653 2.68092 10.5296 2.61292 10.334 2.54892L9.7553 2.36893C9.46395 2.27693 9.24843 2.14094 9.11673 1.96094C8.98502 1.78495 8.91717 1.58896 8.91717 1.38097C8.91717 1.21297 8.95309 1.06498 9.02493 0.936984C9.09677 0.808989 9.19256 0.696994 9.31229 0.608997C9.43202 0.517001 9.56772 0.449003 9.72736 0.401005C9.887 0.353007 10.0546 0.333008 10.2302 0.333008C10.318 0.333008 10.4098 0.337008 10.4976 0.349007C10.5894 0.361007 10.6732 0.377006 10.7571 0.393005C10.8369 0.413005 10.9127 0.433004 10.9845 0.457003C11.0564 0.481002 11.1123 0.505001 11.1522 0.529C11.2081 0.560999 11.248 0.592998 11.2719 0.628996C11.2959 0.660995 11.3078 0.704993 11.3078 0.760991V0.948984C11.3078 1.03298 11.2759 1.07698 11.216 1.07698C11.1841 1.07698 11.1322 1.06098 11.0644 1.02898C10.8369 0.924985 10.5815 0.872987 10.2981 0.872987C10.0706 0.872987 9.891 0.908985 9.76727 0.984982C9.64355 1.06098 9.57969 1.17697 9.57969 1.34097C9.57969 1.45296 9.6196 1.54896 9.69942 1.62496C9.77925 1.70095 9.92692 1.77695 10.1384 1.84495L10.7052 2.02494C10.9925 2.11694 11.2001 2.24493 11.3238 2.40893C11.4475 2.57292 11.5074 2.76091 11.5074 2.96891C11.5074 3.1409 11.4715 3.29689 11.4036 3.43289C11.3318 3.56888 11.236 3.68888 11.1123 3.78487C10.9885 3.88487 10.8409 3.95687 10.6693 4.00887C10.4897 4.06486 10.3021 4.09286 10.0985 4.09286Z" fill="white"/>
<g id="Group_2">
<path id="Vector_2" fill-rule="evenodd" clip-rule="evenodd" d="M10.849 6.03693C9.53595 7.00889 7.62822 7.52487 5.98789 7.52487C3.68903 7.52487 1.61766 6.67291 0.0531618 5.25696C-0.0705615 5.14497 0.0411886 4.99297 0.188858 5.08097C1.88107 6.06493 3.96841 6.66091 6.12758 6.66091C7.58432 6.66091 9.18474 6.35692 10.6574 5.73294C10.877 5.63295 11.0645 5.87694 10.849 6.03693Z" fill="#FF9900"/>
<path id="Vector_3" fill-rule="evenodd" clip-rule="evenodd" d="M11.3949 5.41269C11.2272 5.1967 10.2853 5.3087 9.85829 5.3607C9.73058 5.37669 9.71062 5.2647 9.82636 5.1807C10.5767 4.65272 11.8099 4.80472 11.9536 4.98071C12.0973 5.1607 11.9137 6.39665 11.2113 6.98863C11.1035 7.08063 10.9997 7.03263 11.0476 6.91264C11.2073 6.51665 11.5625 5.62469 11.3949 5.41269Z" fill="#FF9900"/>
</g>
</g>
</svg>
